<?xml version="1.0" encoding="UTF-8"?>
<svg version="1.1" viewBox="0 0 145.04 51.35" xml:space="preserve" xmlns="http://www.w3.org/2000/svg" xmlns:cc="http://creativecommons.org/ns#" xmlns:dc="http://purl.org/dc/elements/1.1/" xmlns:rdf="http://www.w3.org/1999/02/22-rdf-syntax-ns#"><metadata><rdf:RDF><cc:Work rdf:about=""><dc:format>image/svg+xml</dc:format><dc:type rdf:resource="http://purl.org/dc/dcmitype/StillImage"/><dc:title/></cc:Work></rdf:RDF></metadata><defs><clipPath id="a"><path d="M 0,841.89 H 595.28 V 0 H 0 Z"/></clipPath></defs><g transform="matrix(1.3333 0 0 -1.3333 -325.25 585.68)"><g clip-path="url(#a)"><g transform="translate(289.11 412.47)"><path d="m0 0c-1e-3 0.779-0.135 1.361-0.402 1.748-0.268 0.385-0.678 0.578-1.23 0.576-0.313 0-0.628-0.068-0.945-0.203-0.318-0.137-0.62-0.312-0.91-0.535l5e-3 -3.66c0.31-0.139 0.576-0.233 0.797-0.283 0.223-0.049 0.476-0.077 0.758-0.077 0.606 2e-3 1.08 0.207 1.42 0.616 0.339 0.41 0.508 1.017 0.507 1.818m1.119 0.035c1e-3 -0.525-0.075-1.006-0.225-1.439-0.149-0.434-0.361-0.801-0.635-1.104-0.254-0.287-0.554-0.508-0.899-0.664-0.346-0.158-0.712-0.236-1.096-0.236-0.336 0-0.641 0.035-0.913 0.107-0.273 0.074-0.55 0.188-0.832 0.342l3e-3 -2.701-1.092-2e-3 -0.011 8.844 1.092 2e-3 1e-3 -0.678c0.29 0.244 0.615 0.449 0.975 0.613 0.361 0.164 0.746 0.246 1.155 0.248 0.78 0 1.387-0.293 1.822-0.881 0.434-0.588 0.654-1.406 0.655-2.451" fill="#e36c12"/></g><g transform="translate(295.95 414.47)"><path d="m0 0h-0.058c-0.161 0.039-0.319 0.068-0.472 0.088-0.151 0.016-0.332 0.027-0.54 0.027-0.335-2e-3 -0.659-0.076-0.972-0.224-0.312-0.151-0.612-0.342-0.902-0.578l6e-3 -4.586-1.093-2e-3 -8e-3 6.464 1.093 2e-3 1e-3 -0.955c0.433 0.348 0.812 0.594 1.143 0.741 0.329 0.144 0.665 0.216 1.008 0.216 0.188 0 0.326-4e-3 0.411-0.013 0.086-8e-3 0.213-0.028 0.382-0.055z" fill="#e36c12"/></g><g transform="translate(301.37 412.43)"><path d="m0 0c-1e-3 0.834-0.167 1.453-0.496 1.857-0.328 0.407-0.785 0.608-1.367 0.606-0.593 0-1.053-0.201-1.378-0.609-0.327-0.405-0.488-1.026-0.488-1.858 2e-3 -0.807 0.166-1.416 0.495-1.834 0.329-0.414 0.788-0.623 1.377-0.621 0.579 0 1.034 0.207 1.362 0.619 0.33 0.414 0.496 1.028 0.495 1.84m1.119 2e-3c1e-3 -1.053-0.268-1.885-0.807-2.496-0.541-0.61-1.262-0.916-2.168-0.918-0.915-2e-3 -1.643 0.303-2.183 0.912-0.537 0.611-0.807 1.441-0.809 2.494-1e-3 1.055 0.267 1.889 0.804 2.5 0.538 0.613 1.264 0.92 2.179 0.92 0.906 2e-3 1.629-0.303 2.171-0.914 0.54-0.611 0.812-1.443 0.813-2.498" fill="#e36c12"/></g><g transform="translate(313.62 409.22)"><path d="m0 0-1.095-2e-3 -5e-3 3.678c0 0.277-0.014 0.547-0.038 0.804-0.024 0.258-0.078 0.467-0.16 0.62-0.089 0.164-0.216 0.291-0.384 0.375-0.165 0.084-0.404 0.127-0.716 0.127-0.307-2e-3 -0.61-0.077-0.915-0.231-0.304-0.152-0.609-0.348-0.915-0.582 0.013-0.088 0.021-0.191 0.031-0.309 8e-3 -0.119 0.012-0.236 0.012-0.349l5e-3 -4.137-1.091-2e-3 -5e-3 3.68c-1e-3 0.283-0.017 0.555-0.039 0.81-0.027 0.258-0.08 0.463-0.162 0.618-0.087 0.166-0.216 0.289-0.382 0.373-0.165 0.082-0.405 0.123-0.718 0.123-0.296 0-0.596-0.075-0.893-0.221-0.301-0.146-0.597-0.334-0.893-0.563l6e-3 -4.824h-1.092l-8e-3 6.465 1.092 2e-3v-0.719c0.338 0.284 0.679 0.504 1.016 0.662 0.337 0.159 0.697 0.239 1.079 0.239 0.442 2e-3 0.815-0.092 1.122-0.276 0.308-0.185 0.538-0.441 0.688-0.769 0.439 0.371 0.843 0.638 1.206 0.803 0.363 0.164 0.75 0.248 1.164 0.248 0.713 0 1.235-0.215 1.572-0.645 0.34-0.428 0.512-1.029 0.512-1.803z" fill="#e36c12"/></g><g transform="translate(320.09 412.46)"><path d="m0 0c-1e-3 0.834-0.164 1.453-0.496 1.857-0.325 0.407-0.783 0.608-1.368 0.606-0.588 0-1.048-0.201-1.377-0.609-0.323-0.405-0.488-1.024-0.487-1.858 2e-3 -0.805 0.167-1.416 0.496-1.834 0.33-0.414 0.789-0.621 1.375-0.621 0.581 0 1.037 0.207 1.366 0.619 0.329 0.414 0.493 1.028 0.491 1.84m1.12 2e-3c1e-3 -1.053-0.268-1.885-0.808-2.496-0.539-0.61-1.259-0.916-2.168-0.918-0.914 0-1.638 0.305-2.179 0.912-0.539 0.611-0.811 1.441-0.813 2.494 0 1.055 0.269 1.889 0.807 2.5 0.539 0.613 1.263 0.92 2.176 0.92 0.909 2e-3 1.632-0.303 2.172-0.914 0.541-0.611 0.812-1.443 0.813-2.498" fill="#e36c12"/></g><g transform="translate(326.24 409.29)"><path d="m0 0c-0.205-0.053-0.43-0.096-0.668-0.131-0.242-0.033-0.455-0.053-0.644-0.053-0.66 0-1.163 0.178-1.505 0.532-0.345 0.353-0.515 0.923-0.515 1.707l-5e-3 3.441-0.733-2e-3 -1e-3 0.914h0.733l-2e-3 1.865 1.092 2e-3 2e-3 -1.865 2.238 2e-3 2e-3 -0.912-2.239-2e-3 5e-3 -2.951c0-0.34 7e-3 -0.606 0.022-0.797 0.017-0.193 0.07-0.371 0.164-0.535 0.083-0.156 0.2-0.27 0.347-0.34 0.146-0.072 0.374-0.107 0.68-0.107 0.173 0 0.361 0.025 0.552 0.078 0.192 0.052 0.331 0.093 0.415 0.129h0.059z" fill="#e36c12"/></g><g transform="translate(328.65 409.24)"><path d="m0 0h-1.093l-8e-3 6.465 1.092 2e-3zm0.056 7.547-1.223-2e-3 -2e-3 1.131 1.223 2e-3z" fill="#e36c12"/></g><g transform="translate(335.2 412.48)"><path d="m0 0c-2e-3 0.834-0.166 1.453-0.496 1.857-0.33 0.407-0.787 0.606-1.37 0.606-0.591 0-1.05-0.203-1.374-0.609-0.326-0.405-0.49-1.026-0.49-1.858 1e-3 -0.807 0.167-1.416 0.496-1.834 0.329-0.416 0.786-0.623 1.374-0.621 0.581 0 1.035 0.207 1.368 0.619 0.326 0.414 0.492 1.028 0.492 1.84m1.117 2e-3c0-1.053-0.267-1.885-0.805-2.496-0.541-0.611-1.261-0.916-2.171-0.918-0.914-2e-3 -1.641 0.303-2.178 0.912-0.538 0.609-0.81 1.441-0.811 2.494-2e-3 1.055 0.268 1.887 0.805 2.5 0.535 0.613 1.261 0.92 2.176 0.92 0.908 2e-3 1.631-0.303 2.173-0.914 0.539-0.611 0.809-1.443 0.811-2.498" fill="#e36c12"/></g><g transform="translate(343.4 409.26)"><path d="m0 0-1.092-2e-3 -5e-3 3.678c-1e-3 0.297-0.018 0.576-0.053 0.836-0.035 0.261-0.1 0.465-0.19 0.609-0.097 0.164-0.235 0.283-0.418 0.361-0.179 0.082-0.413 0.12-0.703 0.12-0.295 0-0.603-0.075-0.927-0.221-0.321-0.147-0.63-0.334-0.923-0.563l6e-3 -4.824-1.095-2e-3 -8e-3 6.467 1.096 2e-3v-0.719c0.337 0.283 0.688 0.504 1.048 0.662s0.731 0.239 1.112 0.239c0.698 2e-3 1.228-0.207 1.596-0.629 0.367-0.42 0.55-1.026 0.55-1.817z" fill="#e36c12"/></g><g transform="translate(263.19 434.34)"><path d="m0 0c3e-3 -2.72-2.201-4.929-4.921-4.932-2.72-4e-3 -4.929 2.2-4.932 4.919-3e-3 2.722 2.2 4.931 4.92 4.934s4.929-2.199 4.933-4.921" fill="#004380"/></g><g transform="translate(263.67 421.88)"><path d="m0 0c-5.13-1.519-8.765-4.535-8.113-6.73 0.654-2.196 5.339-2.741 10.471-1.221 5.131 1.523 8.762 4.533 8.112 6.731-0.651 2.194-5.339 2.742-10.47 1.22m-14.721-21.086c-4.29 0.016-6.196 3.449-4.253 7.666l5.058 10.973c1.943 4.217 6.998 7.621 11.291 7.602l11.17-0.046c4.293-0.018 6.198-3.451 4.256-7.666l-5.059-10.97c-1.944-4.219-6.999-7.623-11.291-7.606" fill="#e36c12"/></g><g transform="translate(289.02 420.35)"><path d="m0 0c-0.224-0.059-0.46-0.104-0.713-0.137-0.25-0.033-0.557-0.05-0.92-0.05-0.81 0-1.414 0.162-1.81 0.491-0.397 0.326-0.595 0.889-0.596 1.685l-4e-3 3.04-0.861-1e-3 -2e-3 1.414 0.861 1e-3 -2e-3 1.865 2.095 3e-3 3e-3 -1.864 1.941 2e-3 1e-3 -1.415-1.941-2e-3 3e-3 -2.308c0-0.229 2e-3 -0.428 8e-3 -0.598 3e-3 -0.171 0.034-0.324 0.092-0.458 0.054-0.136 0.149-0.243 0.285-0.321 0.136-0.08 0.335-0.119 0.597-0.118 0.108 0 0.248 0.023 0.423 0.068 0.174 0.044 0.297 0.087 0.366 0.125h0.173z" fill="#004380"/></g><g transform="translate(293.64 420.12)"><path d="m0 0c-0.565 0-1.083 0.066-1.55 0.199-0.47 0.137-0.875 0.346-1.222 0.627-0.342 0.281-0.609 0.637-0.797 1.066-0.189 0.429-0.285 0.931-0.285 1.506 0 0.607 0.1 1.132 0.301 1.573 0.201 0.44 0.484 0.806 0.844 1.097 0.35 0.274 0.754 0.476 1.212 0.603 0.458 0.129 0.932 0.194 1.425 0.195 0.442 0 0.851-0.048 1.223-0.144 0.375-0.097 0.723-0.222 1.045-0.375l3e-3 -1.78-0.294-1e-3c-0.079 0.07-0.176 0.151-0.289 0.242-0.114 0.093-0.254 0.184-0.418 0.272-0.157 0.085-0.331 0.155-0.518 0.211-0.189 0.055-0.408 0.082-0.657 0.082-0.553-1e-3 -0.977-0.178-1.273-0.532-0.297-0.353-0.445-0.834-0.444-1.44 1e-3 -0.626 0.152-1.101 0.459-1.424 0.305-0.326 0.738-0.487 1.297-0.486 0.261 0 0.498 0.031 0.705 0.089 0.209 0.06 0.384 0.13 0.521 0.21 0.129 0.078 0.245 0.157 0.345 0.242 0.099 0.083 0.191 0.165 0.275 0.246l0.293 1e-3 3e-3 -1.773c-0.328-0.155-0.667-0.278-1.024-0.369-0.356-0.092-0.748-0.135-1.18-0.137" fill="#004380"/></g><g transform="translate(303.77 420.31)"><path d="m0 0-2.096-2e-3 -4e-3 3.228c-1e-3 0.263-0.013 0.524-0.042 0.784-0.028 0.262-0.073 0.452-0.139 0.576-0.076 0.144-0.188 0.248-0.336 0.313-0.147 0.066-0.355 0.1-0.62 0.1-0.189-1e-3 -0.381-0.033-0.574-0.096-0.193-0.06-0.404-0.16-0.63-0.296l6e-3 -4.612-2.095-3e-3 -0.012 9.012 2.096 3e-3 4e-3 -3.225c0.37 0.291 0.724 0.512 1.064 0.668 0.34 0.154 0.72 0.232 1.134 0.233 0.701 1e-3 1.249-0.204 1.644-0.612 0.397-0.409 0.594-1.022 0.595-1.837z" fill="#004380"/></g><g transform="translate(309.74 421.98)"><path d="m0 0c0.137 0.167 0.237 0.367 0.305 0.601 0.064 0.235 0.099 0.558 0.098 0.973-1e-3 0.383-0.036 0.704-0.106 0.962-0.068 0.26-0.165 0.468-0.287 0.622-0.123 0.158-0.272 0.27-0.446 0.335-0.173 0.066-0.36 0.1-0.558 0.099-0.199 0-0.379-0.027-0.533-0.081-0.156-0.055-0.305-0.165-0.448-0.327-0.127-0.15-0.226-0.357-0.3-0.621-0.075-0.264-0.114-0.595-0.114-0.993 1e-3 -0.357 0.035-0.665 0.1-0.924 0.068-0.263 0.163-0.472 0.291-0.631 0.123-0.15 0.269-0.262 0.441-0.33 0.17-0.069 0.366-0.104 0.586-0.104 0.186 0 0.367 0.032 0.537 0.097 0.172 0.064 0.317 0.172 0.434 0.322m2.563 1.587c1e-3 -1.069-0.309-1.913-0.93-2.531-0.621-0.617-1.496-0.927-2.619-0.929-1.126-2e-3 -2 0.309-2.625 0.922-0.622 0.618-0.936 1.459-0.937 2.529-1e-3 1.079 0.312 1.926 0.937 2.542 0.626 0.615 1.499 0.923 2.615 0.925 1.132 1e-3 2.01-0.306 2.629-0.924 0.617-0.618 0.929-1.462 0.93-2.534" fill="#004380"/></g><g transform="translate(320.28 420.33)"><path d="m0 0-2.099-3e-3 -1e-3 0.718c-0.379-0.294-0.736-0.519-1.052-0.669-0.323-0.154-0.698-0.231-1.144-0.231-0.72-1e-3 -1.27 0.204-1.66 0.619-0.387 0.411-0.58 1.022-0.581 1.829l-6e-3 4.234 2.098 3e-3 4e-3 -3.229c0-0.328 0.011-0.6 0.033-0.82 0.02-0.217 0.07-0.397 0.148-0.541 0.073-0.142 0.183-0.248 0.33-0.312 0.151-0.066 0.356-0.098 0.62-0.098 0.177 0 0.372 0.034 0.589 0.099 0.215 0.065 0.423 0.163 0.62 0.29l-5e-3 4.613 2.098 2e-3z" fill="#004380"/></g><g transform="translate(329.16 420.34)"><path d="m0 0-2.404-2e-3 -1.834 2.838-0.573-0.705 4e-3 -2.137-2.097-2e-3 -0.012 9.012 2.098 2e-3 6e-3 -5.366 2.226 2.862 2.41 3e-3 -2.33-2.806z" fill="#004380"/></g><g transform="translate(334.83 423.65)"><path d="m0 0c0 0.58-0.101 1.025-0.295 1.338-0.195 0.311-0.546 0.468-1.048 0.468-0.193-1e-3 -0.395-0.03-0.6-0.092-0.209-0.059-0.405-0.146-0.592-0.257l4e-3 -3.268c0.149-0.055 0.291-0.09 0.424-0.11 0.136-0.019 0.295-0.028 0.484-0.028 0.546 1e-3 0.955 0.164 1.223 0.488 0.269 0.323 0.4 0.813 0.4 1.461m2.159 0.047c1e-3 -1.024-0.28-1.858-0.844-2.504-0.563-0.645-1.268-0.968-2.11-0.97-0.363 0-0.68 0.039-0.954 0.115-0.274 0.078-0.534 0.189-0.78 0.336l-0.088-0.324-2.01-2e-3 -0.011 9.011 2.097 3e-3 4e-3 -3.182c0.32 0.253 0.647 0.461 0.978 0.619 0.333 0.159 0.717 0.238 1.155 0.239 0.822 1e-3 1.454-0.295 1.896-0.887 0.445-0.593 0.666-1.411 0.667-2.454" fill="#004380"/></g><g transform="translate(342.42 422.06)"><path d="m0 0-2e-3 1.352c-0.28-0.025-0.582-0.056-0.908-0.097-0.326-0.042-0.572-0.089-0.741-0.143-0.207-0.065-0.366-0.161-0.474-0.286-0.111-0.125-0.164-0.29-0.164-0.493 1e-3 -0.135 0.01-0.246 0.035-0.33 0.024-0.085 0.082-0.165 0.172-0.243 0.088-0.077 0.195-0.133 0.317-0.17 0.121-0.036 0.315-0.053 0.577-0.053 0.205 0 0.415 0.042 0.626 0.127 0.216 0.086 0.401 0.197 0.562 0.336m1e-3 -1.006c-0.11-0.086-0.251-0.189-0.416-0.31-0.164-0.118-0.319-0.213-0.465-0.284-0.205-0.093-0.417-0.162-0.634-0.209-0.222-0.046-0.462-0.069-0.722-0.069-0.617-1e-3 -1.131 0.189-1.549 0.571-0.412 0.381-0.623 0.869-0.623 1.463-1e-3 0.475 0.101 0.865 0.313 1.165 0.212 0.302 0.511 0.54 0.898 0.715 0.387 0.174 0.864 0.297 1.433 0.372 0.57 0.074 1.16 0.129 1.772 0.164v0.035c-1e-3 0.361-0.147 0.61-0.44 0.748s-0.724 0.206-1.292 0.206c-0.342-1e-3 -0.709-0.062-1.096-0.185-0.39-0.121-0.666-0.215-0.837-0.281h-0.191l-2e-3 1.565c0.219 0.058 0.578 0.128 1.073 0.206 0.494 0.081 0.989 0.121 1.488 0.122 1.183 1e-3 2.038-0.18 2.562-0.545 0.529-0.364 0.791-0.935 0.793-1.714l5e-3 -4.422-2.069-2e-3z" fill="#004380"/></g><g transform="translate(348.5 420.37)"><path d="m0 0-2.098-3e-3 -0.011 9.013 2.097 2e-3z" fill="#004380"/></g><g transform="translate(352.55 420.37)"><path d="m0 0-2.096-2e-3 -0.011 9.012 2.095 3e-3z" fill="#004380"/></g><g transform="translate(350.92 413.06)"><path d="m0 0-0.213-0.541c-0.176 0.129-0.387 0.193-0.637 0.193-0.218 0-0.394-0.097-0.527-0.293-0.134-0.193-0.199-0.447-0.199-0.761 0-0.301 0.07-0.541 0.211-0.721 0.139-0.18 0.315-0.27 0.525-0.268 0.233 0 0.438 0.118 0.617 0.352l0.352-0.481c-0.291-0.287-0.628-0.431-1.01-0.431-0.404-2e-3 -0.723 0.142-0.957 0.433-0.234 0.289-0.351 0.668-0.351 1.135 0 0.453 0.122 0.83 0.369 1.135 0.248 0.303 0.568 0.455 0.963 0.455 0.333 2e-3 0.618-0.068 0.857-0.207m-2.922-1.391c1e-3 -0.562 0.201-1.043 0.601-1.441 0.399-0.398 0.88-0.598 1.442-0.596 0.561 0 1.039 0.199 1.438 0.598 0.396 0.398 0.595 0.879 0.594 1.443-1e-3 0.563-0.2 1.041-0.598 1.438-0.399 0.398-0.878 0.595-1.44 0.595-0.564 0-1.045-0.201-1.443-0.599-0.397-0.397-0.594-0.877-0.594-1.438m-0.648-2e-3c0 0.743 0.26 1.375 0.784 1.899 0.524 0.525 1.158 0.787 1.9 0.789 0.742 0 1.376-0.26 1.9-0.783 0.523-0.524 0.787-1.155 0.787-1.897 2e-3 -0.742-0.26-1.377-0.783-1.902-0.523-0.526-1.155-0.787-1.897-0.789-0.742 0-1.377 0.26-1.902 0.785-0.525 0.523-0.788 1.156-0.789 1.898" fill="#e36c12"/></g></g></g></svg>
