<svg xmlns="http://www.w3.org/2000/svg" xml:space="preserve" style="fill-rule:evenodd;clip-rule:evenodd;stroke-linejoin:round;stroke-miterlimit:2" viewBox="0 0 317 209"><path d="M50.908 52.051c.015.033-.118-7.61-.214-13.595-.026-1.615-.273-4.73-4.405-6.355-8.871-3.859-12.357-5.172-15.72-7.445 0 0 4.641 18.625 4.613 18.541 3.383 3.13 14.195 5.404 15.726 8.854M51.696 52.051c-.013.033.119-7.612.215-13.595.025-1.617.272-4.73 4.407-6.355 8.867-3.859 12.354-5.172 15.716-7.443l-1.347 5.427c-3.215 2.03-6.481 3.428-8.893 4.446l-.227 1.564c5.279-2.336 6.169-2.781 8.684-4.256l-1.246 5.026c-3.019 1.843-5.783 2.97-8.075 3.935l-.272 1.61c4.927-2.182 5.788-2.575 7.916-3.811-.669 2.693-1.163 4.689-1.153 4.662-3.385 3.129-14.193 5.34-15.725 8.79M37.206 59.917c.002.002.03 2.187.03 2.185.137-.304.212-.601.355-.857.452-1 1.307-1.309 2.144-1.326 0 0 1.551 0 1.553-.002v3.836l-1.783.021c-.667.057-1.446.11-1.744 1.002-.141.491-.129 1.072-.129 1.655v7.167l-5.368-.001V59.919zM47.632 59.919l.007 13.679h-5.33V59.917zM53.721 59.917c.004.002.016 1.103.043 1.639.199-.639.496-1.42 1.129-1.596l.557-.043 4.908.002c.509.035 1.019.287 1.259.908.071.184.126.381.198.582.128-.437.226-.963.582-1.236.282-.256.656-.254 1.022-.254h3.67c1.019.035 2.069.763 2.437 2.037.27.871.383 1.838.398 2.838v8.803h-4.898l.006-10.278c-.028-.219-.152-.492-.281-.564-.136-.074-.211-.108-.296-.108h-1.941c-.158.055-.256.045-.399.274a.9.9 0 0 0-.131.435l-.002 10.241h-4.918V63.3a1 1 0 0 0-.179-.475c-.111-.144-.398-.178-.595-.178l-1.775-.002c-.158.037-.272.09-.367.231-.094.138-.128.463-.128.463l-.009 10.258h-4.914V59.919zM72.466 64.821c.568-.381 1.247-.455 1.914-.455h5.739c-.013-.564.13-1.256-.296-1.582-.226-.182-.524-.129-.764-.146l-7.315-.004-.001-2.686h10.22c.157.022.229-.017.355 0 1.135.039 2.339.633 2.781 2.053.296.855.355 1.805.37 2.789v8.834l.04.004h-5.061s-.015-1.02-.057-1.492c-.1.455-.272.927-.625 1.181-.737.438-1.671.274-2.536.311h-3.445c-.837-.074-1.686-.436-2.112-1.457-.54-1.274-.369-2.985-.383-4.475.058-1.148.313-2.33 1.176-2.875m4.198 5.139c.006.187.03.361.099.519a.8.8 0 0 0 .598.414h2.096s.29-.011.474-.306c.208-.332.182-.684.182-.684.005 0 0-2.828 0-2.828h-1.81c-.497.018-1.031-.09-1.415.256-.142.176-.201.402-.224.646.004.002 0 1.983 0 1.983M29.561 68.727c-.568.383-1.247.455-1.914.455h-5.743c.015.565-.126 1.256.3 1.582.224.184.524.127.764.147l7.392.004v2.683H19.708c-1.132-.07-2.339-.63-2.78-2.05-.297-.854-.355-1.807-.371-2.789l-.002-1.807v-2.184c.057-1.086.113-1.888.371-2.783.443-1.529 1.674-1.978 2.784-2.06 0 0 4.163 0 5.087-.004h3.444c.837.074 1.686.437 2.112 1.455.538 1.273.37 2.986.383 4.478-.056 1.145-.312 2.328-1.175 2.873m-4.197-5.138a1.5 1.5 0 0 0-.098-.52.83.83 0 0 0-.6-.418l-2.095.004s-.291.012-.475.307c-.208.334-.183.681-.183.681-.005 0 0 2.833 0 2.833h1.812c.496-.02 1.028.087 1.412-.26.144-.174.202-.399.227-.645-.005-.002 0-1.982 0-1.982M42.313 55.905h5.329v2.686h-5.329z" style="fill:#76b935;fill-rule:nonzero" transform="translate(-55.23 -100.933)scale(4.16667)"/><path d="M87.481 72.491c.088.008.175 0 .237.072.072.078.072.207.09.348.01.094.036.195.055.289h.233c-.055-.148-.072-.314-.096-.473-.023-.173-.05-.275-.241-.32v-.006a.37.37 0 0 0 .297-.377c0-.312-.273-.392-.534-.392h-.562V73.2h.219v-.709zm-.306-.674h.357c.24.01.295.119.295.244 0 .123-.055.231-.295.243h-.357z" style="fill:#76b935" transform="translate(-55.23 -100.933)scale(4.16667)"/><path d="M86.106 72.427c0-.756.611-1.37 1.365-1.37a1.367 1.367 0 1 1-1.365 1.37m.22.007a1.156 1.156 0 1 1 2.311 0 1.156 1.156 0 0 1-2.311 0" style="fill:#76b935" transform="translate(-55.23 -100.933)scale(4.16667)"/></svg>