<svg version="1.1" id="Ebene_1" xmlns="http://www.w3.org/2000/svg" x="0" y="0" viewBox="0 0 743.5 158.7" xml:space="preserve"><style>.st4{fill:#e2001a}</style><path d="M530.1 82.1c-.4-7-.8-15.3-.7-21.5h-.2c-1.7 5.8-3.8 12.1-6.3 18.9l-8.8 24.2h-4.9L501.1 80c-2.4-7-4.4-13.5-5.8-19.4h-.1c-.1 6.2-.5 14.6-1 22l-1.3 21.4h-6.1l3.5-49.9h8.2l8.5 24.1c2.1 6.1 3.8 11.6 5 16.8h.2c1.3-5 3-10.5 5.3-16.8l8.9-24.1h8.2l3.1 49.9h-6.3l-1.3-21.9zM551.5 87.3c.1 8.8 5.8 12.4 12.3 12.4 4.7 0 7.5-.8 9.9-1.8l1.1 4.7c-2.3 1-6.2 2.2-11.9 2.2-11 0-17.6-7.3-17.6-18.1s6.4-19.3 16.8-19.3c11.7 0 14.8 10.3 14.8 16.9 0 1.3-.1 2.4-.2 3h-25.2zm19.1-4.6c.1-4.1-1.7-10.6-9-10.6-6.6 0-9.5 6.1-10 10.6h19zM584.9 77.9c0-3.7-.1-6.7-.3-9.7h5.7l.3 5.8h.2c2-3.4 5.3-6.6 11.2-6.6 4.9 0 8.6 3 10.1 7.2h.1c1.1-2 2.5-3.6 4-4.7 2.1-1.6 4.5-2.5 7.9-2.5 4.7 0 11.8 3.1 11.8 15.5V104h-6.4V83.8c0-6.9-2.5-11-7.8-11-3.7 0-6.6 2.7-7.7 5.9-.3.9-.5 2.1-.5 3.3v22h-6.4V82.6c0-5.7-2.5-9.8-7.5-9.8-4.1 0-7 3.3-8.1 6.5-.4 1-.5 2.1-.5 3.2V104h-6.4V77.9zM646.3 104c.1-2.4.3-6.1.3-9.2V51.5h6.4V74h.1c2.3-4 6.4-6.6 12.2-6.6 8.9 0 15.2 7.4 15.1 18.3 0 12.8-8.1 19.2-16.1 19.2-5.2 0-9.3-2-12-6.7h-.2l-.3 5.9h-5.5zm6.8-14.3c0 .8.1 1.6.3 2.4 1.3 4.5 5 7.6 9.8 7.6 6.8 0 10.9-5.5 10.9-13.8 0-7.2-3.7-13.3-10.7-13.3-4.4 0-8.6 3-9.9 8-.1.7-.4 1.6-.4 2.7v6.4zM692.3 87.3c.1 8.8 5.8 12.4 12.3 12.4 4.7 0 7.5-.8 9.9-1.8l1.1 4.7c-2.3 1-6.2 2.2-11.9 2.2-11 0-17.6-7.3-17.6-18.1s6.4-19.3 16.8-19.3c11.7 0 14.8 10.3 14.8 16.9 0 1.3-.1 2.4-.2 3h-25.2zm19.1-4.6c.1-4.1-1.7-10.6-9-10.6-6.6 0-9.5 6.1-10 10.6h19zM725.8 79.4c0-4.2-.1-7.8-.3-11.2h5.7l.2 7h.3c1.6-4.8 5.5-7.8 9.9-7.8.7 0 1.3.1 1.8.2v6.1c-.7-.1-1.3-.2-2.2-.2-4.6 0-7.8 3.5-8.7 8.4-.1.9-.3 1.9-.3 3V104h-6.4V79.4z"/><g><path d="M308.9 18.1c0-10-8.1-18.1-18.1-18.1-10 0-18.1 8.1-18.1 18.1 0 10 8.1 18.1 18.1 18.1.5 0 1 0 1.6-.1 0-.5-.1-1-.1-1.4 0-.5 0-1.1.1-1.6-.5.1-1 .1-1.6.1-8.3 0-15.1-6.7-15.1-15.1 0-8.3 6.7-15.1 15.1-15.1 8.3 0 15.1 6.7 15.1 15.1 0 6.7-4.3 12.3-10.4 14.3-.1.7-.2 1.5-.2 2.2v.9c7.9-2 13.6-9 13.6-17.4" fill="#0081c8"/><path d="M387.2 18.1c0 10-8.1 18.1-18.1 18.1-9.4 0-17.2-7.2-18-16.5 1.1.1 2.1.3 3.1.7 1.1 7.2 7.3 12.8 14.9 12.8 8.3 0 15.1-6.7 15.1-15.1 0-8.3-6.7-15.1-15.1-15.1-8 0-14.5 6.2-15 14.1-1-.2-2-.4-3-.5.7-9.3 8.5-16.6 18-16.6 10 0 18.1 8.1 18.1 18.1" fill="#ee334e"/><path d="M349.6 19.6c7.6 0 13.8 5.6 14.9 12.8 1 .3 2 .6 3.1.7-.8-9.2-8.6-16.5-18-16.5-.5 0-1 0-1.6.1 0 .5.1 1 .1 1.4 0 .5 0 1.1-.1 1.6.5-.1 1-.1 1.6-.1m15 16c-.5 7.9-7 14.1-15 14.1-8.3 0-15.1-6.7-15.1-15.1 0-6.7 4.4-12.3 10.4-14.3.1-.7.2-1.5.2-2.2v-.9c-7.8 2-13.5 9.1-13.5 17.5 0 10 8.1 18.1 18.1 18.1 9.5 0 17.3-7.3 18-16.6-1.2-.2-2.2-.4-3.1-.6" fill="#00a651"/><path d="M308.8 19.7c0-.5.1-1.1.1-1.6s0-1-.1-1.4c.5 0 1-.1 1.6-.1 9.4 0 17.2 7.2 18 16.5-1.1-.1-2.1-.3-3.1-.7-1.1-7.2-7.3-12.8-14.9-12.8-.5 0-1.1 0-1.6.1m19.6 16.4c-.7 9.3-8.5 16.6-18 16.6-10 0-18.1-8.1-18.1-18.1 0-8.4 5.7-15.5 13.5-17.5v.9c0 .8-.1 1.5-.2 2.2-6 2-10.4 7.6-10.4 14.3 0 8.3 6.7 15.1 15.1 15.1 8 0 14.5-6.2 15-14.1 1.1.3 2.1.5 3.1.6" fill="#fcb131"/><path d="M330 0c-9.5 0-17.3 7.3-18 16.6 1 .1 2 .3 3 .5.4-7.8 7-14.1 15-14.1 8.3 0 15.1 6.7 15.1 15.1 0 6.7-4.4 12.3-10.4 14.3-.1.7-.2 1.5-.2 2.2v.9c7.8-2 13.5-9.1 13.5-17.5 0-9.9-8-18-18-18m0 33.1c-7.6 0-13.8-5.6-14.9-12.8-1-.3-2-.5-3.1-.7.8 9.2 8.6 16.5 18 16.5.5 0 1 0 1.6-.1 0-.5-.1-1-.1-1.4 0-.5 0-1.1.1-1.6-.6.1-1.1.1-1.6.1M198.5 139.1l10.7-56.5H199l-10.7 56.5zM161.4 132.2c-5.1 0-8.2-4.1-8.2-10 0-8 4.7-18.9 12.9-18.9 6.2 0 8.2 5.4 8.2 9.8-.1 8.5-5.2 19.1-12.9 19.1zm-1.1 7.9c14.5 0 24.6-12.5 24.6-27 0-9.4-6-17.7-17.5-17.7-14.6 0-24.7 12.6-24.7 27 0 10.2 6.7 17.7 17.6 17.7zM211.5 96.4l8.5 39.4c.2.8.2 1.3-.2 2-1.9 3.5-4.6 6.4-7.5 8.5-2.7 2-5.6 3.1-7.5 3.7l2.4 8.8c2.6-.5 8.2-2.6 13.1-7.3 5.7-5.5 10.5-13.1 15.7-23.5l15.6-31.5h-10.8l-9.2 21c-2 4.7-3.1 7.5-4.1 10.2h-.2c-.4-2.9-.9-6-1.7-10.7l-3.3-20.6h-10.8zM260.4 139.1l3.7-20.2c1.6-8.7 7-15.2 11.8-15.2 4.1 0 5.1 2.9 5.1 6.2 0 1.6-.2 3.2-.6 5l-4.6 24.2h9.9l3.8-20.5c1.7-9 6.8-14.9 11.5-14.9 3.7 0 5.2 2.4 5.2 6.1 0 1.7-.3 3.7-.6 5.4l-4.4 23.9h9.9l4.7-25c.4-2.3.7-5.4.7-7.3 0-7.6-4.5-11.3-10.4-11.3-5.9.1-11.3 2.9-15.2 8.7-.3-4.5-3.4-8.7-10-8.7-5.6 0-10.8 2.7-14.8 8.4h-.1l.9-7.4H258c-.5 3.7-1.1 8.1-2.1 13.2l-5.5 29.5h10zM334.9 119.6c1.8-10 7.5-15.8 12.6-15.8 5 0 6.7 4.4 6.7 8.3 0 9.6-6.5 20.2-14.4 20.2-2.9 0-5.2-.8-6.8-2.2l1.9-10.5zm-6.9 36.9l3.4-18.2h.2c1.6.9 4.6 1.8 8.5 1.8 14.6 0 24.9-13.9 24.9-28.8 0-8.3-4.2-15.8-13.5-15.8-5.5 0-10.8 2.9-14.4 8h-.2l1-7.3h-9.2c-.5 4.3-1.5 11-2.5 16.1l-8.4 44.2H328zM383.4 89.8c3.7 0 6.6-2.5 6.7-6.5 0-3.5-2.4-5.8-5.7-5.8-3.5 0-6.5 2.7-6.5 6.5-.1 3.4 2.2 5.8 5.5 5.8zm-4.8 49.3l8.1-42.7h-10.2l-8.1 42.7h10.2zM419.1 129.7c-2.2 1-5.1 2-9.1 2-5.7 0-9.4-3.6-9.4-10 0-8.9 6.2-18 16.1-18 2.8 0 4.8.6 6.4 1.3l2.6-7.9c-1.6-.8-5-1.7-8.8-1.7-15.8 0-27.1 12.6-27.1 27.5 0 10.2 6.6 17.1 17.3 17.1 5.4 0 9.8-1.2 12.3-2.4l-.3-7.9z"/><path class="st4" d="M54.8 76.8c2.3 1.7 6.9 3.1 12 3.2 10.2 0 18-5.3 18-14.7 0-5.4-4.1-9-8.8-11.5-3.6-1.9-5.5-3.5-5.5-5.9 0-2.9 2.6-4.9 6.5-4.9 3.5 0 6.4 1.1 8 1.9l2.6-7.4c-1.9-1.1-5.6-2.2-10-2.2-10.1 0-17.3 5.8-17.3 14 0 4.9 3.5 8.5 8.4 11.1 4.2 2.2 5.6 3.9 5.6 6.6 0 2.9-2.4 5.2-6.6 5.3-3.9 0-8-1.6-10.3-2.8l-2.6 7.3zM94.3 36.3l4 42.7h9.6l9.5-19c1.8-3.9 3-7 5-12.2h.2c0 4.5.1 8.4.5 12.6L125 79h9.6l20.9-42.7h-10.3L136 57.2c-1.8 4.6-3.1 8.4-4.4 12.5h-.2c.1-3.8-.1-7.7-.4-12.6l-1.8-20.8h-8.5l-10.3 21.4c-2 4.3-3.7 8.3-5 12.1h-.2c.2-4.2.3-7.6.1-12.7l-.7-20.8H94.3zM169.4 29.6c3.7 0 6.6-2.5 6.7-6.5 0-3.5-2.4-5.8-5.7-5.8-3.5 0-6.5 2.7-6.5 6.5-.1 3.5 2.2 5.8 5.5 5.8zM164.6 79l8.1-42.7h-10.2L154.4 79h10.2zM174.6 76.8c2.3 1.7 6.9 3.1 12 3.2 10.3.1 18.1-5.2 18.1-14.6 0-5.4-4.1-9-8.8-11.5-3.6-1.9-5.5-3.5-5.5-5.9 0-2.9 2.6-4.9 6.5-4.9 3.5 0 6.4 1.1 8 1.9l2.6-7.4c-1.9-1.1-5.6-2.2-10-2.2-10.1 0-17.3 5.8-17.3 14 0 4.9 3.5 8.5 8.4 11.1 4.2 2.2 5.6 3.9 5.6 6.6 0 2.9-2.4 5.2-6.6 5.3-3.9 0-8-1.6-10.3-2.8l-2.7 7.2zM213.5 70.8c2.1.8 4.8 1.5 7.3 1.5 4.2 0 6.6-2.4 6.6-5.3 0-2.6-1.4-4.4-5.6-6.6-4.9-2.6-8.4-6.2-8.4-11.1 0-8.2 7.2-14 17.3-14 4.5 0 8.2 1 10 2.2l-2.6 7.4c-1.6-.8-4.5-1.9-8-1.9-3.8 0-6.5 2-6.5 4.9 0 2.4 1.9 4 5.5 5.9 4.7 2.5 8.9 6.1 8.9 11.5 0 9.4-7.9 14.7-18.1 14.6-2.9 0-5.6-.5-7.8-1.2l1.4-7.9zM0 36.2h42.9v42.9H0z"/><path fill="#fff" d="M34.8 53.6h-9.2v-9.4h-8.1v9.4H8v8h9.5V71h8.1v-9.4h9.2z"/></g><g><path d="M453.5 1.4h4.1v155.9h-4.1z"/></g></svg>
