<svg xmlns="http://www.w3.org/2000/svg" width="234.883" height="464.517"><path d="M40.235 0h-.015l.005.01z" fill="#4b4ca6"/><path d="M79.112 67.432h.045L40.225.011 1.3 67.439h77.813v-.007" fill="#ab4bac"/><path d="M79.112 67.515v-.076H1.299l38.926 67.432 38.887-67.356" fill="#de4b1f"/><path d="M79.165 67.432h77.846L118.089.011z" fill="#4b4ca6"/><path d="M118.093 134.864h-.008l.004.007z" fill="#3169bb"/><path d="M195.95.01l-38.92 67.422h77.847l-31.142-53.936L195.95.011M40.22 0H1.299v.01h38.926L40.22 0" fill="#3991b5"/><path d="M1.299.01V67.44L40.225.01z" fill="#bb7ac4"/><path d="M118.09.01l-.005-.01h-77.85l-.01.01h77.864" fill="#50c3e9"/><path d="M40.225.01l38.932 67.422h.008L118.09.011H40.225" fill="#3169bb"/><path d="M195.95.01h-77.86l38.929 67.422h.01L195.951.011" fill="#50c3e9"/><path d="M118.09.01h77.86l-.007-.01h-77.85l-.004.01" fill="#3169bb"/><path d="M79.112 202.297h.045l-38.932-67.426L1.3 202.303h77.813v-.006" fill="#ebee2a"/><path d="M79.112 202.38v-.077H1.299l38.926 67.425 38.887-67.348" fill="#ed1c24"/><path d="M79.161 202.297h77.852l-38.924-67.426z" fill="#8bcf27"/><path d="M1.299 67.439v67.432h38.926z" fill="#a72e2b"/><path d="M1.299 134.87v67.433l38.926-67.432z" fill="#e9af0f"/><path d="M79.112 134.864v-67.35l-38.887 67.357" fill="#e53324"/><path d="M40.225 134.87l38.932 67.427h.004l38.928-67.426H40.225" fill="#3169bb"/><path d="M157.019 134.87v-.006h-38.926l-.004.007h38.93" fill="#8bcf27"/><path d="M157.013 202.297h.006v-67.426h-38.93l38.924 67.426" fill="#288b4e"/><path d="M1.299 337.159H79.16l-38.936-67.431z" fill="#de4b1f"/><path d="M79.161 337.159h77.858l-38.93-67.431z" fill="#3169bb"/><path d="M195.95 269.728l-38.931 67.43h77.864l-38.932-67.43" fill="#8bcf27"/><path d="M1.299 202.303v67.425h38.926z" fill="#a2158d"/><path d="M1.299 269.728v67.43l38.926-67.43z" fill="#bb7ac4"/><path d="M79.112 269.728V202.38l-38.887 67.348z" fill="#3169bb"/><path d="M79.112 269.728H40.225l38.936 67.43 38.928-67.43H79.112" fill="#50c3e9"/><path d="M118.09 269.728l38.929 67.43 38.932-67.43z" fill="#3da13e"/><path d="M234.883 269.728H195.95l38.932 67.43z" fill="#ebee2a"/><path d="M195.95.01l7.785 13.486 31.145 53.936h.003V.011H195.95" fill="#3169bb"/><path d="M165.995 454.685c8.74 0 13.109-4.364 13.109-13.101v-22.937c0-8.735-4.37-13.1-13.11-13.1H129.96v36.037c0 8.737 4.372 13.101 13.105 13.101zm22.934-13.101c0 15.293-7.646 22.933-22.934 22.933h-22.931c-15.287 0-22.93-7.64-22.93-22.933v-75.352h9.825v29.484h36.036c15.288 0 22.934 7.647 22.934 22.93v22.938M205.396 395.716v-6.548c0-15.288 7.643-22.936 22.936-22.936h6.55v9.828h-6.55c-8.737 0-13.107 4.373-13.107 13.108v6.548h16.376v9.83h-16.376v58.971h-9.829v-58.97h-9.83v-9.831h9.83M74.281 405.547v-9.831h9.827v-29.484h9.83v29.484h16.382v9.83H93.939v36.038c0 8.737 4.368 13.101 13.104 13.101h6.549v9.832h-6.55c-15.289 0-22.934-7.64-22.934-22.933v-36.037h-9.827M22.935 376.06c-8.736 0-13.104 4.373-13.104 13.108v14.09l46.456-10.689c1.79-.61 2.686-1.745 2.686-3.401 0-8.735-4.372-13.108-13.104-13.108zm22.934 49.137c8.732 0 13.104-4.361 13.104-13.096H68.8c0 15.287-7.645 22.93-22.93 22.93H22.934C7.645 435.03 0 427.388 0 412.1v-22.933c0-15.288 7.645-22.936 22.935-22.936h22.934c15.286 0 22.931 6.55 22.931 19.66 0 9.524-3.321 14.981-9.96 16.376l-48.948 11.14c.397 7.861 4.743 11.79 13.043 11.79h22.934" fill="#231f20"/><path d="M67.94 454.685H.86v9.832h67.08v-9.832" fill="#3169bb"/></svg>
