<?xml version="1.0" encoding="UTF-8"?>
<svg version="1.1" viewBox="0 0 123.51 122.07" xml:space="preserve" xmlns="http://www.w3.org/2000/svg" xmlns:cc="http://creativecommons.org/ns#" xmlns:dc="http://purl.org/dc/elements/1.1/" xmlns:rdf="http://www.w3.org/1999/02/22-rdf-syntax-ns#"><metadata><rdf:RDF><cc:Work rdf:about=""><dc:format>image/svg+xml</dc:format><dc:type rdf:resource="http://purl.org/dc/dcmitype/StillImage"/><dc:title/></cc:Work></rdf:RDF></metadata><g transform="matrix(1.3333 0 0 -1.3333 -614.68 530.63)"><g transform="scale(.1)" fill-rule="evenodd"><path d="m5532.5 3469.9c-3.04 10.55-6.16 23.01-6.16 35.28v202.32c0 75.89-30.54 105.47-108.93 105.47-35.97 0-63.75-9.93-82.57-29.54-19.41-20.24-28.45-50.22-26.84-89.1 0.11-2.47 2.15-4.42 4.6-4.42h77.51c2.45 0 4.48 1.91 4.6 4.36l0.18 3.38c1.47 28.64 3.23 43.58 24.98 43.58 13.57 0 19.74-15.35 19.74-29.61 0-25.77-19.4-32.62-46.25-42.09l-18.13-6.71c-34.91-13.9-70.64-38.59-70.64-116.35 0-55.67 30.45-93.08 75.77-93.08 29.04 0 46.44 12.76 64.01 34.22 1.59-8.73 3.62-19.82 3.62-19.82 0.38-2.19 2.3-3.79 4.53-3.79h75.55c1.46 0 2.82 0.69 3.67 1.85 0.88 1.15 1.17 2.64 0.76 4.05zm-92.89 151.11v-43.86c-0.48-20.72-4.95-45.54-23.66-45.54-15.11 0-24.14 11.51-24.14 30.8 0 22.19 8.75 32.46 16.38 38.94 5.67 5.13 12.77 9.04 20.99 13.57 0 0 5.41 3.16 10.43 6.09" fill="#0831a8"/><path d="m4747.2 3423.9c-20.53 0-39.3-16.06-50.47-35.47v21.41c0 2.53-2.07 4.61-4.62 4.61h-72.13c-2.55 0-4.61-2.08-4.61-4.61v-330.33c0-2.53 2.06-4.59 4.61-4.59h77.51c2.53 0 4.6 2.06 4.6 4.59v235.93c0 21.81 12.47 22.35 16.56 22.52 3.81 0.3 6.66-0.47 8.87-2.39 3.81-3.29 6.16-10.36 6.8-20.4l-0.01-235.66c0-2.53 2.06-4.59 4.6-4.59h77.51c2.55 0 4.61 2.06 4.61 4.59v270.72c0 50.62-38.26 73.67-73.83 73.67" fill="#0831a8"/><path d="m4961.2 3423.8c-70.35 0-106.01-39.67-106.01-117.89v-134.48c0-93.32 66.42-107.25 106.01-107.25 67.57 0 102.23 35 105.98 106.99v134.74c0 78.22-35.65 117.89-105.98 117.89zm-19.28-110.82c0 22.39 6.48 33.75 19.28 33.75 12.79 0 19.27-11.36 19.27-33.75v-147.44c-1.56-20.11-8.84-24.31-19.27-24.31s-17.7 4.2-19.28 24.58v147.17" fill="#0831a8"/><path d="m5294.6 3414.4h-75.56c-2.31 0-4.27-1.72-4.56-4.02 0 0-17.49-134.32-23.56-181.05-5.66 46.77-21.91 181-21.91 181-0.28 2.31-2.24 4.07-4.57 4.07h-78c-1.36 0-2.66-0.61-3.53-1.66-0.88-1.05-1.24-2.43-1-3.78l59.47-330.32c0.39-2.2 2.3-3.79 4.53-3.79h88.73c2.23 0 4.14 1.59 4.53 3.79l59.96 330.32c0.24 1.35-0.12 2.72-1 3.78-0.87 1.05-2.18 1.66-3.53 1.66" fill="#0831a8"/><path d="m5536.2 3080.9c-3.06 10.52-6.16 22.94-6.16 35.3v202.31c0 75.93-30.55 105.52-108.92 105.52-36 0-63.78-9.95-82.58-29.56-19.43-20.25-28.44-50.24-26.84-89.12 0.1-2.47 2.14-4.41 4.61-4.41h77.5c2.45 0 4.47 1.9 4.6 4.36l0.18 3.38c1.44 28.62 3.23 43.56 24.95 43.56 13.59 0 19.77-15.34 19.77-29.59 0-25.78-19.39-32.62-46.28-42.12l-18.1-6.7c-34.92-13.89-70.65-38.56-70.65-116.33 0-55.68 30.46-93.09 75.78-93.09 29.04 0 46.43 12.77 64 34.22 1.6-8.74 3.61-19.82 3.61-19.82 0.41-2.2 2.32-3.8 4.55-3.8h75.55c1.44 0 2.81 0.69 3.69 1.86 0.85 1.15 1.15 2.66 0.74 4.03zm-92.89 151.14v-43.87c-0.48-20.72-4.98-45.53-23.66-45.53-15.14 0-24.15 11.51-24.15 30.77 0 22.24 8.76 32.5 16.39 38.97 5.68 5.13 12.79 9.04 21.02 13.59 0 0 5.37 3.14 10.4 6.07" fill="#0831a8"/><path d="m4838 3469.7c-3.05 10.52-6.17 22.94-6.17 35.29v202.29c0 75.91-30.54 105.48-108.91 105.48-35.99 0-63.76-9.93-82.58-29.53-19.41-20.24-28.44-50.23-26.83-89.11 0.1-2.46 2.12-4.42 4.6-4.42h77.5c2.46 0 4.47 1.92 4.61 4.37l0.16 3.38c1.47 28.63 3.25 43.57 24.97 43.57 13.58 0 19.76-15.35 19.76-29.6 0-25.78-19.4-32.63-46.26-42.1l-18.12-6.72c-34.92-13.87-70.64-38.55-70.64-116.33 0-55.67 30.45-93.08 75.78-93.08 29.04 0 46.43 12.76 64 34.22 1.59-8.74 3.6-19.82 3.6-19.82 0.4-2.18 2.31-3.79 4.54-3.79h75.55c1.46 0 2.82 0.69 3.7 1.85 0.86 1.15 1.14 2.65 0.74 4.05zm-92.89 151.13v-43.9c-0.48-20.7-4.96-45.52-23.66-45.52-15.12 0-24.15 11.51-24.15 30.78 0 22.2 8.76 32.49 16.4 38.95 5.66 5.14 12.75 9.06 20.99 13.6 0 0 5.4 3.14 10.42 6.09" fill="#0831a8"/><path d="m5206 3903.5c-6.95-41.86-44.54-75.65-83.94-75.41-39.44 0.2-65.75 34.34-58.81 76.22 6.96 41.85 44.55 75.62 83.98 75.4 39.41-0.21 65.72-34.33 58.77-76.21" fill="#bd0f20"/><path d="m4842.7 3463.7 141.78 0.05 96.94 95.13 64.01-94.87 126.3 0.07c-1.51 4.84-3.75 9.56-6.75 13.97l-106.35 156.59 85.58 83.98c20.96 20.6 21.29 54.27 0.72 75.26-20.59 20.97-54.28 21.28-75.27 0.71l-71.73-70.41-43.02 63.44c-16.49 24.32-49.57 30.68-73.91 14.18-24.31-16.48-30.67-49.57-14.18-73.9l53.91-79.49-165.37-162.25c-6.35-6.23-10.1-14.56-12.66-22.46" fill="#bd0f20"/></g></g></svg>
