<?xml version="1.0" encoding="UTF-8"?>
<svg version="1.1" viewBox="0 0 131.9 134.67" xml:space="preserve" xmlns="http://www.w3.org/2000/svg" xmlns:cc="http://creativecommons.org/ns#" xmlns:dc="http://purl.org/dc/elements/1.1/" xmlns:rdf="http://www.w3.org/1999/02/22-rdf-syntax-ns#"><metadata><rdf:RDF><cc:Work rdf:about=""><dc:format>image/svg+xml</dc:format><dc:type rdf:resource="http://purl.org/dc/dcmitype/StillImage"/><dc:title/></cc:Work></rdf:RDF></metadata><defs><clipPath id="a"><path d="M 0,841.89 H 595.276 V 0 H 0 Z"/></clipPath></defs><g transform="matrix(1.3333 0 0 -1.3333 0 1122.5)"><g transform="translate(-228.74 357.75)"><g clip-path="url(#a)"><path d="m325.44 469.28c2.328-5.548 2.088-10.376 2.053-16.643l-0.049-11.812-14.196-2e-3c7.483-3.425 13.142-11.19 14.11-19.041 0.436-5.29 0.316-9.93 0.239-15.307-0.591-8.647-6.011-17.354-14.212-20.856-5.274-2.422-11.951-2.987-17.602-1.096-6.404 1.884-12.533 7.363-14.999 13.664-1.327 3.194-1.865 10.467-1.865 10.467l6.51 0.011v17.28h17.61v14.88h-17.61v17.492h-6.69c-0.299 0.205-0.19 0.809-0.181 1.203 0.068 10.274 6.815 19.82 16.54 23.252 7.637 2.8 16.986 1.225 23.15-3.972 3.099-2.431 5.719-6.035 7.192-9.52m-47.807 13.698-0.124-24.663-6.793 2e-3v-0.064c-0.069-6.138 0.09-11.384-0.047-17.428h-18v42.188zm-6.964-74.313h6.84c0.326-9.854-5.526-19.98-14.943-23.662-8.545-3.733-19.332-1.712-26.027 4.725-4.674 4.658-7.785 10.537-7.789 16.747-4e-3 5.915 4e-3 19.469 4e-3 19.469l41.915 1e-3z" fill="#ed1c24" fill-rule="evenodd"/></g></g></g></svg>
