<?xml version="1.0" encoding="UTF-8"?>
<svg version="1.1" viewBox="0 0 370.41 49.32" xml:space="preserve" xmlns="http://www.w3.org/2000/svg" xmlns:cc="http://creativecommons.org/ns#" xmlns:dc="http://purl.org/dc/elements/1.1/" xmlns:rdf="http://www.w3.org/1999/02/22-rdf-syntax-ns#"><metadata><rdf:RDF><cc:Work rdf:about=""><dc:format>image/svg+xml</dc:format><dc:type rdf:resource="http://purl.org/dc/dcmitype/StillImage"/><dc:title/></cc:Work></rdf:RDF></metadata><g transform="matrix(1.3333 0 0 -1.3333 0 49.32)"><g transform="scale(.1)" fill="#447bc7"><path d="m0 5.8594v259.28h99.363v-259.28h-99.363m0 357.91h99.363v-67.629h-99.363v67.629"/><path d="m135.34 265.14h92.527v-42.239c13.832 17.254 27.832 29.582 41.992 36.989 14.16 7.402 31.41 11.109 51.758 11.109 27.504 0 49.027-8.18 64.574-24.535 15.543-16.359 23.317-41.625 23.317-75.809v-164.79h-99.856v142.58c0 16.273-3.011 27.789-9.031 34.546-6.023 6.75-14.488 10.129-25.391 10.129-12.046 0-21.812-4.558-29.296-13.672-7.493-9.113-11.231-25.472-11.231-49.07v-124.51h-99.363v259.28"/><path d="m559.43 265.14h47.363v-72.754h-47.363v-186.52h-99.61v186.52h-37.109v72.754h37.109v11.718c0 10.575 1.137 22.215 3.418 34.911 2.278 12.695 6.547 23.074 12.817 31.129 6.265 8.058 15.054 14.566 26.367 19.531 11.308 4.961 27.871 7.445 49.683 7.445 17.411 0 42.727-2.035 75.926-6.101l-10.984-60.059c-11.883 1.953-21.485 2.93-28.809 2.93-8.957 0-15.383-1.508-19.289-4.516-3.902-3.012-6.672-7.773-8.301-14.285-0.812-3.582-1.218-11.152-1.218-22.703"/><path d="m702.27 135.01c0-23.117 4.68-40.207 14.04-51.274 9.355-11.07 21.121-16.598 35.281-16.598 14.32 0 26.078 5.4492 35.277 16.356 9.192 10.898 13.793 28.399 13.793 52.488 0 22.461-4.641 39.188-13.918 50.172-9.273 10.989-20.75 16.481-34.422 16.481-14.488 0-26.449-5.578-35.886-16.723-9.446-11.152-14.165-28.121-14.165-50.902zm-99.605-0.246c0 39.55 13.344 72.144 40.035 97.777 26.692 25.637 62.746 38.453 108.16 38.453 51.918 0 91.145-15.058 117.68-45.168 21.32-24.25 31.985-54.117 31.985-89.598 0-39.882-13.231-72.546-39.676-98.027-26.449-25.469-63.031-38.203-109.74-38.203-41.671 0-75.363 10.574-101.08 31.738-31.574 26.199-47.359 60.547-47.359 103.03"/><path d="m919.1 265.14h92.778v-37.84c13.36 15.785 26.85 27.016 40.46 33.687 13.61 6.672 30.03 10.012 49.27 10.012 20.69 0 37.08-3.66 49.14-10.984 12.06-7.328 21.92-18.235 29.58-32.715 15.6 16.922 29.83 28.441 42.67 34.543 12.84 6.105 28.68 9.156 47.54 9.156 27.79 0 49.49-8.262 65.09-24.781 15.61-16.524 23.41-42.36 23.41-77.516v-162.84h-99.61v147.7c0 11.718-2.27 20.425-6.81 26.125-6.65 8.949-14.92 13.425-24.81 13.425-11.69 0-21.09-4.23-28.23-12.691-7.14-8.469-10.7-22.059-10.7-40.774v-133.79h-99.61v142.82c0 11.39-0.66 19.121-1.97 23.191-2.12 6.508-5.79 11.758-11.02 15.746-5.23 3.984-11.35 5.981-18.37 5.981-11.44 0-20.83-4.317-28.17-12.938-7.36-8.629-11.03-22.789-11.03-42.48v-132.32h-99.608v259.28"/><path d="m1575.1 128.91c-13.67-4.883-27.92-9.199-42.73-12.937-20.18-5.371-32.96-10.664-38.33-15.871-5.53-5.3714-8.3-11.477-8.3-18.313 0-7.8086 2.73-14.195 8.18-19.168 5.45-4.9609 13.47-7.4414 24.05-7.4414 11.06 0 21.36 2.6836 30.88 8.0547s16.28 11.926 20.27 19.66c3.98 7.7227 5.98 17.773 5.98 30.144zm-86.18 52.246-94.98 10.008c3.58 16.606 8.75 29.664 15.51 39.188 6.75 9.519 16.48 17.777 29.17 24.781 9.11 5.043 21.65 8.949 37.6 11.719 15.95 2.761 33.2 4.148 51.76 4.148 29.78 0 53.71-1.672 71.78-5.004 18.06-3.34 33.12-10.301 45.16-20.875 8.46-7.324 15.14-17.699 20.02-31.129 4.88-13.425 7.32-26.246 7.32-38.453v-114.5c0-12.207 0.78-21.766 2.32-28.691 1.55-6.9141 4.93-15.742 10.14-26.484h-93.27c-3.74 6.6679-6.18 11.758-7.32 15.254-1.14 3.5039-2.28 8.9922-3.42 16.484-13.02-12.539-25.96-21.484-38.82-26.856-17.57-7.1563-38-10.742-61.28-10.742-30.92 0-54.4 7.1562-70.43 21.484-16.04 14.316-24.05 31.984-24.05 52.98 0 19.684 5.78 35.887 17.34 48.582 11.55 12.695 32.87 22.133 63.96 28.32 37.27 7.485 61.44 12.735 72.51 15.746 11.07 3.008 22.78 6.957 35.16 11.84 0 12.207-2.53 20.754-7.57 25.637-5.05 4.883-13.92 7.324-26.61 7.324-16.28 0-28.49-2.605-36.62-7.812-6.35-4.075-11.48-11.719-15.38-22.95"/><path d="m1711.9 265.14h92.52v-42.239c13.84 17.254 27.84 29.582 42 36.989 14.16 7.402 31.41 11.109 51.75 11.109 27.51 0 49.04-8.18 64.57-24.535 15.55-16.359 23.33-41.625 23.33-75.809v-164.79h-99.86v142.58c0 16.273-3.01 27.789-9.03 34.546-6.03 6.75-14.49 10.129-25.39 10.129-12.05 0-21.81-4.558-29.3-13.672-7.49-9.113-11.23-25.472-11.23-49.07v-124.51h-99.36v259.28"/><path d="m2019.8 265.14h99.37v-259.28h-99.37zm0 98.633h99.37v-67.629h-99.37v67.629"/><path d="m2337.9 130.37c-13.67-4.883-27.92-9.199-42.72-12.937-20.19-5.375-32.96-10.664-38.33-15.871-5.54-5.3716-8.3-11.473-8.3-18.309 0-7.8164 2.72-14.199 8.17-19.172 5.46-4.9609 13.47-7.4414 24.06-7.4414 11.06 0 21.35 2.6836 30.88 8.0547 9.52 5.3711 16.27 11.926 20.26 19.66 3.99 7.7226 5.98 17.774 5.98 30.148zm-86.18 52.246-94.97 10.012c3.58 16.598 8.75 29.66 15.5 39.184 6.76 9.519 16.48 17.777 29.18 24.781 9.11 5.043 21.64 8.949 37.6 11.715 15.95 2.765 33.2 4.152 51.76 4.152 29.78 0 53.71-1.668 71.77-5.004 18.07-3.34 33.12-10.301 45.17-20.875 8.46-7.324 15.14-17.699 20.02-31.129 4.88-13.426 7.32-26.242 7.32-38.449v-114.5c0-12.207 0.77-21.77 2.32-28.691 1.55-6.9141 4.92-15.742 10.13-26.484h-93.26c-3.75 6.668-6.19 11.758-7.32 15.254-1.14 3.5078-2.29 8.9922-3.42 16.484-13.03-12.539-25.97-21.484-38.82-26.856-17.58-7.1562-38.01-10.742-61.28-10.742-30.93 0-54.4 7.1562-70.43 21.484-16.03 14.316-24.05 31.984-24.05 52.98 0 19.684 5.77 35.886 17.33 48.582 11.56 12.695 32.88 22.133 63.97 28.32 37.26 7.484 61.43 12.734 72.51 15.746 11.06 3.008 22.78 6.957 35.15 11.844 0 12.207-2.52 20.75-7.56 25.633-5.05 4.883-13.92 7.324-26.61 7.324-16.28 0-28.49-2.609-36.63-7.813-6.34-4.074-11.47-11.718-15.38-22.949"/><path d="m2474.7 365.23h101.57v-184.75l74.21 86.114h122.32l-93.02-90.825 98.39-168.45h-111.95l-52.52 103.94-37.43-36.555v-67.383h-101.57v357.91"/></g></g></svg>
