<svg xmlns="http://www.w3.org/2000/svg" xmlns:xlink="http://www.w3.org/1999/xlink" viewBox="0 0 191 19.4"><defs><path d="M8.58 9.98c1.55 1.22 2.54 2.07 2.54 4.2 0 3.23-2.8 5.15-6.3 5.15-1.32 0-4.15-.28-4.82-1.16l.1-2.36c0-.29.16-.44.34-.44 1.3.63 2.71 1 4.15 1.11 1.6 0 2.64-.49 2.64-2 0-.39-.16-.67-.86-1.24-.25-.2-2.29-1.8-2.54-2-1.76-1.4-2.69-2.15-2.69-4.51 0-3.32 3-4.77 6.11-4.77 1.22 0 4.15.42 4.15 1.14l-.1 2.36c.01.19-.15.35-.34.36-.49 0-1.27-1.14-3.6-1.14-1.37 0-2.33.57-2.33 1.66.08.69.48 1.29 1.08 1.64.49.4 1.98 1.6 2.47 2z" id="a"/><path d="M16.25 19.04c-.73 0-.83-.39-1-1.35-.26-1.23-2.31-11.07-2.57-12.3.01-.24.19-.43.42-.47h3.16c.21.01.38.14.44.34.07.49.67 4.43.75 4.92.31 1.89.52 4.92.55 5.6h.03c.07-.42.46-2 .93-3.53l2-6.71c.11-.31.37-.62.65-.62h3.52c.33.02.6.29.62.62.06.54.57 4.83.63 5.37.13 1.14.28 3.24.44 4.87h.05c.28-1.19.52-2.18 1.42-5 .17-.54 1.57-4.9 1.74-5.44.09-.24.31-.41.57-.42h2.69c.26 0 .37.11.37.36-.48 1.26-4.29 11.36-4.77 12.62-.26.68-.39 1.14-1.12 1.14h-2.85c-.64 0-.9-.18-1-1.45l-.49-5c-.19-1.69-.29-4.12-.29-4.8-.2 1.12-.47 2.23-.8 3.32-.19.65-1.73 5.89-1.92 6.55-.26.78-.42 1.4-1.27 1.4-.58 0-2.32-.02-2.9-.02z" id="b"/><path d="M35.24 5.34c0-.34.2-.42.51-.42h2.72c.34 0 .39.11.39.42-.07 1.32-.65 11.89-.72 13.21 0 .31-.13.49-.39.49h-2.72c-.49 0-.52-.2-.52-.49.15-2.64.58-10.57.73-13.21zm1-2.21c-.88 0-1.25-.36-1.2-1v-1c.05-.83.49-1.11 1.35-1.11h1.76c.83 0 1.22.28 1.19 1.09-.01.1-.05.9-.05 1 0 .83-.62 1-1.48 1-.31 0-1.26.02-1.57.02z" id="c"/><path d="M47.62 11.06c1.36.71 2.18 2.15 2.1 3.68 0 2.9-2.23 4.56-5.39 4.56-2 0-4-.39-4-1.35l.11-2.2a.38.38 0 01.35-.41h.01c.34 0 1.76 1.24 3.78 1.24 1.17 0 1.92-.36 1.92-1s-.39-.77-.93-1.16c-.24-.14-2.14-1.3-2.38-1.44a3.738 3.738 0 01-2.16-3.73c0-2.8 2-4.59 5.05-4.59 1.5 0 3.75.44 3.75 1.32l-.1 2c0 .21-.1.42-.31.42-.52 0-1.55-1-3.11-1-1.29 0-2 .34-2 1.12.04.38.26.71.6.88l2.71 1.66z" id="d"/><path d="M58.16 11.06c1.36.71 2.19 2.15 2.1 3.68 0 2.9-2.22 4.56-5.39 4.56-2 0-4-.39-4-1.35l.1-2.2a.38.38 0 01.35-.41h.02c.33 0 1.76 1.24 3.78 1.24 1.16 0 1.92-.36 1.92-1s-.39-.77-.94-1.16c-.24-.14-2.13-1.3-2.37-1.44a3.752 3.752 0 01-2.12-3.68c0-2.8 2-4.59 5.05-4.59 1.5 0 3.76.44 3.76 1.32l-.1 2c0 .21-.11.42-.32.42-.51 0-1.55-1-3.1-1-1.3 0-2 .34-2 1.12.03.37.26.71.59.88l2.67 1.61z" id="e"/><path d="M73.66 4.92h-4.72c-.44 0-.46-.21-.46-.39l.1-1.84c-.03-.24.14-.46.38-.49h13.35c.47 0 .49.21.49.49l-.1 1.71c.03.26-.15.49-.41.52-.04.01-.09.01-.13 0h-4.87c-.44 8.18-.68 12.72-.73 13.63.03.23-.13.45-.36.49h-2.8c-.42 0-.47-.2-.47-.49.1-1.82.34-6.36.73-13.63z" id="f"/><path d="M90.19 17.98c0 .85-2.44 1.37-4.38 1.37-3.71 0-5.49-2-5.49-5.83 0-5.78 3.31-8.81 7.17-8.81 1.45 0 3.32.34 3.32 1.14l-.1 2c-.01.16-.13.28-.29.28a7.51 7.51 0 00-2.54-.7c-2 0-3.68 2-3.68 5.5 0 2 .75 3.57 2.65 3.57 1.65 0 2.66-.83 3.16-.83.16.01.29.14.28.3v.01l-.1 2z" id="g"/><path d="M95.76 18.55c0 .31-.13.49-.39.49h-2.72c-.49 0-.52-.2-.52-.49l1-18.14c0-.33.2-.41.51-.41h2.72c.34 0 .39.1.39.41-.04.67-.23 4-.57 10v.05c.34-1.14 1.82-5.78 5.68-5.78 2 0 2.72 1.25 2.72 3.5-.05 1.04-.47 9.35-.52 10.39 0 .31-.18.49-.57.49h-2.85c-.46 0-.46-.26-.46-.49.04-.85.4-7.65.44-8.5 0-.72 0-1.24-.68-1.24-1.16 0-4.12 5.15-4.12 7.82-.01.38-.05 1.52-.06 1.9z" id="h"/><path d="M113.01 4.66c3.6 0 5.78 2.18 5.78 6.45 0 5.55-3.24 8.19-6.94 8.19-3.42 0-5.65-2.17-5.65-6.32 0-5.78 3.21-8.32 6.81-8.32zm1.89 6.53c0-1.84-.26-3.81-2.1-3.81-2.52 0-2.72 4-2.72 5.65.01 1.76.34 3.55 2.13 3.55 1.8 0 2.69-2 2.69-5.39z" id="i"/><path d="M128.84 13.63l-.05-.05c-.49 1.21-2.38 5.72-5.88 5.72-2.15 0-2.51-1.35-2.51-3.06.05-1.08.49-9.75.54-10.83 0-.31.18-.49.57-.49h2.85c.47 0 .47.26.47.49-.06.85-.56 7.68-.62 8.53 0 .62 0 1.22.7 1.22 1.29 0 4.24-5.37 4.24-7.8.01-.2.12-1.8.13-2 0-.34.21-.42.52-.42h2.72c.34 0 .39.11.39.42-.07 1.32-.65 11.89-.72 13.21 0 .31-.13.49-.39.49h-2.72c-.5 0-.52-.2-.52-.49.04-.66.13-2.31.28-4.94z" id="j"/><path d="M136.31.41c0-.33.2-.41.51-.41h2.72c.34 0 .39.1.39.41l-1 18.14c0 .31-.13.49-.39.49h-2.72c-.49 0-.52-.2-.52-.49.2-3.63.81-14.51 1.01-18.14zm3.39 11.25a.961.961 0 01-.08-.29c0-.13.06-.25.16-.33.51-.58 4.57-5.25 5.08-5.83a.73.73 0 01.57-.29h3.23c.13 0 .31 0 .31.21a.81.81 0 01-.2.44c-.33.37-2 2.23-5 5.57 2.47 4.31 3.85 6.7 4.12 7.18 0 .13.16.26.16.39s-.11.33-.44.33H144a.587.587 0 01-.54-.26l-3.76-7.12z" id="k"/><path d="M150.66.41c0-.31.21-.41.52-.41h2.67c.36 0 .44.1.44.41-.03.64-.21 3.82-.52 9.54V10c.44-1 2-5.34 5.6-5.34 2.85 0 3.39 2.72 3.39 4.85 0 5.49-2.93 9.79-7.18 9.79-1.35 0-2.68-.4-3.8-1.16-.14.1-1.29.9-1.43 1-.1.1-.22.15-.36.15-.34 0-.34-.36-.34-.65.2-3.65.81-14.58 1.01-18.23zm8.52 9.72c0-.85-.13-1.84-1-1.84-1.94 0-4.77 7.33-5 8.11.55.23 1.14.33 1.73.31 3.73 0 4.27-4.17 4.27-6.58z" id="l"/><path d="M172.73 14.15v-.06c-.28 1.09-2 5.21-5.52 5.21-2.25 0-3.21-2-3.21-4.77 0-6.06 3.14-9.87 6.81-9.87.96 0 1.91.24 2.75.7 0-.21.16-.44.34-.44h2.72c.46 0 .54.18.54.52l-.7 13.11c0 .34-.15.49-.57.49h-2.86c-.46 0-.49-.23-.49-.49.03-.59.09-2.05.19-4.4zm.68-6.56c-.49-.23-1.03-.35-1.58-.34-3.71 0-4.25 4.2-4.25 6.66 0 .83.23 1.76.96 1.76 1.71 0 4.76-6.68 4.87-8.08z" id="m"/><path d="M180.45.41c0-.33.21-.41.52-.41h2.72c.34 0 .39.1.39.41l-1 18.14c0 .31-.13.49-.39.49h-2.66c-.49 0-.52-.2-.52-.49.19-3.63.75-14.51.94-18.14z" id="n"/><path d="M187.16.41c0-.33.21-.41.52-.41h2.72c.34 0 .39.1.39.41l-1 18.14c0 .31-.13.49-.39.49h-2.72c-.49 0-.52-.2-.52-.49l1-18.14z" id="o"/></defs><use xlink:href="#a" fill="red"/><use xlink:href="#a" fill-opacity="0" stroke="#000" stroke-opacity="0"/><use xlink:href="#b" fill="red"/><use xlink:href="#b" fill-opacity="0" stroke="#000" stroke-opacity="0"/><use xlink:href="#c" fill="red"/><use xlink:href="#c" fill-opacity="0" stroke="#000" stroke-opacity="0"/><use xlink:href="#d" fill="red"/><use xlink:href="#d" fill-opacity="0" stroke="#000" stroke-opacity="0"/><use xlink:href="#e" fill="red"/><use xlink:href="#e" fill-opacity="0" stroke="#000" stroke-opacity="0"/><use xlink:href="#f" fill="red"/><use xlink:href="#f" fill-opacity="0" stroke="#000" stroke-opacity="0"/><use xlink:href="#g" fill="red"/><use xlink:href="#g" fill-opacity="0" stroke="#000" stroke-opacity="0"/><use xlink:href="#h" fill="red"/><use xlink:href="#h" fill-opacity="0" stroke="#000" stroke-opacity="0"/><g><use xlink:href="#i" fill="red"/><use xlink:href="#i" fill-opacity="0" stroke="#000" stroke-opacity="0"/></g><g><use xlink:href="#j" fill="red"/><use xlink:href="#j" fill-opacity="0" stroke="#000" stroke-opacity="0"/></g><g><use xlink:href="#k" fill="red"/><use xlink:href="#k" fill-opacity="0" stroke="#000" stroke-opacity="0"/></g><g><use xlink:href="#l" fill="red"/><use xlink:href="#l" fill-opacity="0" stroke="#000" stroke-opacity="0"/></g><g><use xlink:href="#m" fill="red"/><use xlink:href="#m" fill-opacity="0" stroke="#000" stroke-opacity="0"/></g><g><use xlink:href="#n" fill="red"/><use xlink:href="#n" fill-opacity="0" stroke="#000" stroke-opacity="0"/></g><g><use xlink:href="#o" fill="red"/><use xlink:href="#o" fill-opacity="0" stroke="#000" stroke-opacity="0"/></g></svg>
