<?xml version="1.0" standalone="no"?>
<!DOCTYPE svg PUBLIC "-//W3C//DTD SVG 20010904//EN"
 "http://www.w3.org/TR/2001/REC-SVG-20010904/DTD/svg10.dtd">
<svg version="1.0" xmlns="http://www.w3.org/2000/svg"
 width="700.000000pt" height="700.000000pt" viewBox="0 0 700.000000 700.000000"
 preserveAspectRatio="xMidYMid meet">
<metadata>
Created by potrace 1.14, written by Peter Selinger 2001-2017
</metadata>
<g transform="translate(0.000000,700.000000) scale(0.100000,-0.100000)"
fill="#000000" stroke="none">
<path d="M1377 5779 c-43 -17 -33 -49 25 -77 48 -24 118 -38 343 -67 523 -67
1070 -227 1475 -430 248 -125 422 -247 566 -397 151 -160 208 -279 208 -438 0
-112 -16 -165 -80 -261 -79 -119 -213 -225 -399 -314 -106 -51 -327 -128 -336
-117 -4 4 -114 243 -244 532 -131 289 -253 556 -273 595 -41 82 -143 188 -214
223 -72 35 -1418 275 -1511 269 -128 -8 -207 -86 -207 -204 0 -35 27 -150 81
-345 l81 -292 -29 -26 c-314 -272 -457 -435 -596 -680 -138 -243 -199 -464
-198 -720 1 -206 42 -384 132 -562 297 -590 1020 -1021 1994 -1188 300 -51
474 -64 845 -64 335 0 448 6 745 44 580 74 1178 251 1659 492 632 316 1069
707 1305 1167 131 254 201 623 142 740 -46 90 -214 200 -386 254 -164 51 -238
62 -425 61 -163 0 -180 -2 -258 -28 -116 -38 -160 -81 -197 -196 -64 -197
-183 -380 -360 -556 -583 -576 -1703 -944 -2724 -894 -710 35 -1252 225 -1586
557 -148 147 -231 302 -262 493 -14 87 -15 118 -5 206 18 161 82 327 187 483
68 101 92 129 99 111 3 -8 80 -287 171 -620 114 -417 176 -627 200 -675 63
-129 166 -221 296 -265 113 -39 129 -35 722 178 l527 190 49 -18 c119 -46 242
-41 426 15 558 171 955 442 1110 760 56 114 75 194 75 321 0 170 -55 331 -172
502 -66 96 -265 297 -378 383 -331 249 -834 484 -1374 640 -456 132 -1156 254
-1249 218z m318 -64 c1081 -159 1978 -524 2446 -997 244 -246 353 -517 305
-759 -72 -358 -442 -664 -1036 -857 -234 -76 -277 -85 -362 -71 -185 29 -339
175 -326 310 8 84 66 139 166 159 393 78 648 170 858 308 105 69 214 175 262
254 56 95 75 162 76 268 0 147 -37 249 -140 387 -335 448 -1189 822 -2199 962
-220 31 -279 41 -295 51 -27 17 67 11 245 -15z m279 -1025 c60 -5 117 -10 126
-10 12 0 35 -46 86 -174 l68 -174 66 -6 c36 -3 99 -6 142 -6 l76 0 75 -177 76
-178 -37 -6 c-20 -4 -81 -10 -134 -14 -65 -4 -98 -11 -98 -19 0 -6 34 -96 76
-200 50 -125 72 -191 64 -196 -13 -8 -310 -64 -314 -59 -1 2 -37 101 -80 219
-43 118 -79 216 -80 217 0 1 -87 -7 -191 -16 -105 -10 -191 -18 -191 -17 -1 1
-36 103 -77 229 l-75 227 189 0 c104 0 189 1 189 3 0 2 -29 83 -65 181 -36 98
-65 181 -65 186 0 5 15 7 33 4 17 -2 81 -8 141 -14z m-674 -108 c0 -4 -28 -28
-61 -51 -179 -126 -386 -336 -500 -504 -144 -215 -209 -412 -209 -637 0 -275
101 -496 327 -718 540 -528 1653 -731 2808 -512 623 118 1285 412 1685 748
290 242 471 508 555 814 14 51 20 60 56 78 184 94 619 -27 619 -173 0 -74 -23
-206 -51 -296 -163 -512 -626 -970 -1332 -1317 -527 -259 -1120 -420 -1792
-486 -199 -20 -772 -16 -960 5 -515 60 -922 173 -1285 357 -446 227 -759 551
-873 905 -42 132 -51 192 -51 345 0 154 14 245 61 389 81 253 289 551 536 770
140 124 290 238 352 267 49 23 115 32 115 16z"/>
</g>
</svg>
